<?xml version="1.0" encoding="UTF-8" standalone="no"?>
<!DOCTYPE svg PUBLIC "-//W3C//DTD SVG 1.1//EN" "http://www.w3.org/Graphics/SVG/1.1/DTD/svg11.dtd">
<svg width="100%" height="100%" viewBox="0 0 128 128" version="1.1" xmlns="http://www.w3.org/2000/svg" xmlns:xlink="http://www.w3.org/1999/xlink" xml:space="preserve" xmlns:serif="http://www.serif.com/" style="fill-rule:evenodd;clip-rule:evenodd;stroke-linejoin:round;stroke-miterlimit:2;">
    <path d="M115.323,0C118.685,-0 121.909,1.336 124.287,3.713C126.664,6.091 128,9.315 128,12.677C128,37.187 128,90.813 128,115.323C128,118.685 126.664,121.909 124.287,124.287C121.909,126.664 118.685,128 115.323,128C90.846,128 37.341,128 12.864,128C9.502,128 6.277,126.664 3.9,124.287C1.522,121.909 0.187,118.685 0.187,115.323C0.187,90.813 0.187,37.187 0.187,12.677C0.187,9.315 1.522,6.091 3.9,3.713C6.277,1.336 9.502,-0 12.864,0C37.341,0 90.846,0 115.323,0Z" style="fill:white;"/>
    <path d="M118.501,62.848L62.848,118.501C61.921,119.526 61.408,120.859 61.408,122.24C61.408,125.297 63.924,127.813 66.981,127.813C68.363,127.813 69.696,127.3 70.72,126.373L126.373,70.72C127.3,69.696 127.813,68.363 127.813,66.981C127.813,63.924 125.297,61.408 122.24,61.408C120.859,61.408 119.526,61.921 118.501,62.848M107.371,1.627L1.627,107.371C0.7,108.395 0.187,109.728 0.187,111.109C0.187,114.167 2.703,116.683 5.76,116.683C7.141,116.683 8.474,116.169 9.499,115.243L115.243,9.499C116.169,8.474 116.683,7.141 116.683,5.76C116.683,2.703 114.167,0.187 111.109,0.187C109.728,0.187 108.395,0.7 107.371,1.627" style="fill-rule:nonzero;"/>
    <g transform="matrix(-1,-1.22465e-16,1.22465e-16,-1,128,128)">
        <path d="M118.501,62.848L62.848,118.501C61.921,119.526 61.408,120.859 61.408,122.24C61.408,125.297 63.924,127.813 66.981,127.813C68.363,127.813 69.696,127.3 70.72,126.373L126.373,70.72C127.3,69.696 127.813,68.363 127.813,66.981C127.813,63.924 125.297,61.408 122.24,61.408C120.859,61.408 119.526,61.921 118.501,62.848" style="fill-rule:nonzero;"/>
    </g>
</svg>
